<svg id="visual" viewBox="0 0 960 540" width="960" height="540" xmlns="http://www.w3.org/2000/svg" xmlns:xlink="http://www.w3.org/1999/xlink" version="1.1"><rect x="0" y="0" width="960" height="540" fill="#001220"></rect><defs><linearGradient id="grad1_0" x1="43.8%" y1="100%" x2="100%" y2="0%"><stop offset="14.444444444444446%" stop-color="#0066ff" stop-opacity="1"></stop><stop offset="85.55555555555554%" stop-color="#0066ff" stop-opacity="1"></stop></linearGradient></defs><defs><linearGradient id="grad1_1" x1="43.8%" y1="100%" x2="100%" y2="0%"><stop offset="14.444444444444446%" stop-color="#0066ff" stop-opacity="1"></stop><stop offset="85.55555555555554%" stop-color="#004eb2" stop-opacity="1"></stop></linearGradient></defs><defs><linearGradient id="grad1_2" x1="43.8%" y1="100%" x2="100%" y2="0%"><stop offset="14.444444444444446%" stop-color="#003165" stop-opacity="1"></stop><stop offset="85.55555555555554%" stop-color="#004eb2" stop-opacity="1"></stop></linearGradient></defs><defs><linearGradient id="grad1_3" x1="43.8%" y1="100%" x2="100%" y2="0%"><stop offset="14.444444444444446%" stop-color="#003165" stop-opacity="1"></stop><stop offset="85.55555555555554%" stop-color="#001220" stop-opacity="1"></stop></linearGradient></defs><defs><linearGradient id="grad2_0" x1="0%" y1="100%" x2="56.3%" y2="0%"><stop offset="14.444444444444446%" stop-color="#0066ff" stop-opacity="1"></stop><stop offset="85.55555555555554%" stop-color="#0066ff" stop-opacity="1"></stop></linearGradient></defs><defs><linearGradient id="grad2_1" x1="0%" y1="100%" x2="56.3%" y2="0%"><stop offset="14.444444444444446%" stop-color="#004eb2" stop-opacity="1"></stop><stop offset="85.55555555555554%" stop-color="#0066ff" stop-opacity="1"></stop></linearGradient></defs><defs><linearGradient id="grad2_2" x1="0%" y1="100%" x2="56.3%" y2="0%"><stop offset="14.444444444444446%" stop-color="#004eb2" stop-opacity="1"></stop><stop offset="85.55555555555554%" stop-color="#003165" stop-opacity="1"></stop></linearGradient></defs><defs><linearGradient id="grad2_3" x1="0%" y1="100%" x2="56.3%" y2="0%"><stop offset="14.444444444444446%" stop-color="#001220" stop-opacity="1"></stop><stop offset="85.55555555555554%" stop-color="#003165" stop-opacity="1"></stop></linearGradient></defs><g transform="translate(960, 540)"><path d="M-324 0C-280.6 -36.2 -237.2 -72.4 -215.6 -124.5C-194.1 -176.6 -194.3 -244.7 -162 -280.6C-129.7 -316.5 -64.8 -320.2 0 -324L0 0Z" fill="#002241"></path><path d="M-243 0C-210.5 -27.1 -177.9 -54.3 -161.7 -93.4C-145.5 -132.5 -145.7 -183.5 -121.5 -210.4C-97.3 -237.4 -48.6 -240.2 0 -243L0 0Z" fill="#00408b"></path><path d="M-162 0C-140.3 -18.1 -118.6 -36.2 -107.8 -62.3C-97 -88.3 -97.2 -122.3 -81 -140.3C-64.8 -158.2 -32.4 -160.1 0 -162L0 0Z" fill="#005bd9"></path><path d="M-81 0C-70.2 -9 -59.3 -18.1 -53.9 -31.1C-48.5 -44.2 -48.6 -61.2 -40.5 -70.1C-32.4 -79.1 -16.2 -80.1 0 -81L0 0Z" fill="#0066ff"></path></g><g transform="translate(0, 0)"><path d="M324 0C281.1 36.5 238.1 72.9 216.5 125C194.9 177.1 194.5 244.8 162 280.6C129.5 316.4 64.7 320.2 0 324L0 0Z" fill="#002241"></path><path d="M243 0C210.8 27.3 178.6 54.7 162.4 93.7C146.2 132.8 145.9 183.6 121.5 210.4C97.1 237.3 48.5 240.1 0 243L0 0Z" fill="#00408b"></path><path d="M162 0C140.5 18.2 119.1 36.5 108.3 62.5C97.4 88.5 97.3 122.4 81 140.3C64.7 158.2 32.4 160.1 0 162L0 0Z" fill="#005bd9"></path><path d="M81 0C70.3 9.1 59.5 18.2 54.1 31.2C48.7 44.3 48.6 61.2 40.5 70.1C32.4 79.1 16.2 80 0 81L0 0Z" fill="#0066ff"></path></g></svg>