<svg id="visual" viewBox="0 0 1920 1080" width="1920" height="1080" xmlns="http://www.w3.org/2000/svg" xmlns:xlink="http://www.w3.org/1999/xlink" version="1.1"><g stroke-width="1" stroke-linejoin="bevel"><path d="M835.3 536L859.3 392L677 533Z" fill="#0066ff" stroke="#0066ff"></path><path d="M859.3 392L628 339L677 533Z" fill="#0066ff" stroke="#0066ff"></path><path d="M677 533L829.3 684L835.3 536Z" fill="#0050b7" stroke="#0050b7"></path><path d="M1100.7 512L1085.7 383L859.3 392Z" fill="#0050b7" stroke="#0050b7"></path><path d="M889.3 167L603 206L628 339Z" fill="#003872" stroke="#003872"></path><path d="M1085.7 383L889.3 167L859.3 392Z" fill="#0066ff" stroke="#0066ff"></path><path d="M859.3 392L889.3 167L628 339Z" fill="#0050b7" stroke="#0050b7"></path><path d="M1100.7 512L859.3 392L835.3 536Z" fill="#0048a0" stroke="#0048a0"></path><path d="M424.7 690L600 755L677 533Z" fill="#001b30" stroke="#001b30"></path><path d="M677 533L600 755L829.3 684Z" fill="#0048a0" stroke="#0048a0"></path><path d="M399.7 507L677 533L628 339Z" fill="#005fe7" stroke="#005fe7"></path><path d="M1079.7 685L1100.7 512L835.3 536Z" fill="#002545" stroke="#002545"></path><path d="M603 206L412.7 357L628 339Z" fill="#002545" stroke="#002545"></path><path d="M412.7 357L399.7 507L628 339Z" fill="#002545" stroke="#002545"></path><path d="M1059.7 886L1079.7 685L829.3 684Z" fill="#0058cf" stroke="#0058cf"></path><path d="M829.3 684L1079.7 685L835.3 536Z" fill="#0050b7" stroke="#0050b7"></path><path d="M399.7 507L424.7 690L677 533Z" fill="#002e5c" stroke="#002e5c"></path><path d="M1288 372L1089.7 178L1085.7 383Z" fill="#0058cf" stroke="#0058cf"></path><path d="M1085.7 383L1089.7 178L889.3 167Z" fill="#004089" stroke="#004089"></path><path d="M444.7 0L409.7 162L603 206Z" fill="#004089" stroke="#004089"></path><path d="M603 206L409.7 162L412.7 357Z" fill="#002545" stroke="#002545"></path><path d="M226.3 348L232.3 546L399.7 507Z" fill="#0050b7" stroke="#0050b7"></path><path d="M1066.7 0L835.3 0L889.3 167Z" fill="#001b30" stroke="#001b30"></path><path d="M889.3 167L835.3 0L603 206Z" fill="#003872" stroke="#003872"></path><path d="M835.3 0L620 0L603 206Z" fill="#004089" stroke="#004089"></path><path d="M600 923L853.3 932L600 755Z" fill="#004089" stroke="#004089"></path><path d="M600 755L853.3 932L829.3 684Z" fill="#001b30" stroke="#001b30"></path><path d="M395.7 935L600 923L600 755Z" fill="#0058cf" stroke="#0058cf"></path><path d="M1079.7 685L1267 520L1100.7 512Z" fill="#002e5c" stroke="#002e5c"></path><path d="M1100.7 512L1267 520L1085.7 383Z" fill="#002545" stroke="#002545"></path><path d="M1276 705L1267 520L1079.7 685Z" fill="#003872" stroke="#003872"></path><path d="M853.3 932L1059.7 886L829.3 684Z" fill="#0048a0" stroke="#0048a0"></path><path d="M399.7 507L232.3 546L424.7 690Z" fill="#001b30" stroke="#001b30"></path><path d="M424.7 690L395.7 935L600 755Z" fill="#003872" stroke="#003872"></path><path d="M226.3 348L399.7 507L412.7 357Z" fill="#0066ff" stroke="#0066ff"></path><path d="M1267 520L1288 372L1085.7 383Z" fill="#0058cf" stroke="#0058cf"></path><path d="M409.7 162L226.3 348L412.7 357Z" fill="#005fe7" stroke="#005fe7"></path><path d="M1256 0L1066.7 0L1089.7 178Z" fill="#0058cf" stroke="#0058cf"></path><path d="M1089.7 178L1066.7 0L889.3 167Z" fill="#00101c" stroke="#00101c"></path><path d="M620 0L444.7 0L603 206Z" fill="#001b30" stroke="#001b30"></path><path d="M409.7 162L201.3 191L226.3 348Z" fill="#003872" stroke="#003872"></path><path d="M1059.7 886L1276 705L1079.7 685Z" fill="#0050b7" stroke="#0050b7"></path><path d="M1267 520L1485.3 366L1288 372Z" fill="#0066ff" stroke="#0066ff"></path><path d="M215.3 737L395.7 935L424.7 690Z" fill="#0058cf" stroke="#0058cf"></path><path d="M659 1080L838.3 1080L853.3 932Z" fill="#00101c" stroke="#00101c"></path><path d="M1288 372L1298 172L1089.7 178Z" fill="#0050b7" stroke="#0050b7"></path><path d="M1485.3 366L1298 172L1288 372Z" fill="#00101c" stroke="#00101c"></path><path d="M194.3 0L201.3 191L409.7 162Z" fill="#002e5c" stroke="#002e5c"></path><path d="M226.3 348L0 399L232.3 546Z" fill="#003872" stroke="#003872"></path><path d="M0 693L215.3 737L232.3 546Z" fill="#002545" stroke="#002545"></path><path d="M232.3 546L215.3 737L424.7 690Z" fill="#0066ff" stroke="#0066ff"></path><path d="M659 1080L853.3 932L600 923Z" fill="#005fe7" stroke="#005fe7"></path><path d="M853.3 932L1053.7 1080L1059.7 886Z" fill="#001b30" stroke="#001b30"></path><path d="M1059.7 886L1263 908L1276 705Z" fill="#005fe7" stroke="#005fe7"></path><path d="M446.7 1080L659 1080L600 923Z" fill="#0050b7" stroke="#0050b7"></path><path d="M1298 172L1256 0L1089.7 178Z" fill="#0048a0" stroke="#0048a0"></path><path d="M1053.7 1080L1263 908L1059.7 886Z" fill="#00101c" stroke="#00101c"></path><path d="M838.3 1080L1053.7 1080L853.3 932Z" fill="#0058cf" stroke="#0058cf"></path><path d="M0 693L199.3 867L215.3 737Z" fill="#003872" stroke="#003872"></path><path d="M215.3 737L199.3 867L395.7 935Z" fill="#0058cf" stroke="#0058cf"></path><path d="M395.7 935L446.7 1080L600 923Z" fill="#002545" stroke="#002545"></path><path d="M211.3 1080L446.7 1080L395.7 935Z" fill="#003872" stroke="#003872"></path><path d="M444.7 0L194.3 0L409.7 162Z" fill="#004089" stroke="#004089"></path><path d="M0 218L0 399L226.3 348Z" fill="#005fe7" stroke="#005fe7"></path><path d="M1502.3 555L1267 520L1276 705Z" fill="#00101c" stroke="#00101c"></path><path d="M1502.3 555L1485.3 366L1267 520Z" fill="#002e5c" stroke="#002e5c"></path><path d="M1298 172L1520.3 0L1256 0Z" fill="#001b30" stroke="#001b30"></path><path d="M1458.3 755L1502.3 555L1276 705Z" fill="#00101c" stroke="#00101c"></path><path d="M0 218L226.3 348L201.3 191Z" fill="#0058cf" stroke="#0058cf"></path><path d="M0 399L0 529L232.3 546Z" fill="#0050b7" stroke="#0050b7"></path><path d="M1476.3 863L1458.3 755L1263 908Z" fill="#0066ff" stroke="#0066ff"></path><path d="M1263 908L1458.3 755L1276 705Z" fill="#005fe7" stroke="#005fe7"></path><path d="M1702.7 366L1513.3 211L1485.3 366Z" fill="#0048a0" stroke="#0048a0"></path><path d="M1485.3 366L1513.3 211L1298 172Z" fill="#00101c" stroke="#00101c"></path><path d="M0 0L0 218L201.3 191Z" fill="#005fe7" stroke="#005fe7"></path><path d="M0 529L0 693L232.3 546Z" fill="#003872" stroke="#003872"></path><path d="M1053.7 1080L1281 1080L1263 908Z" fill="#00101c" stroke="#00101c"></path><path d="M1465.3 1080L1476.3 863L1263 908Z" fill="#004089" stroke="#004089"></path><path d="M1727.7 508L1702.7 366L1502.3 555Z" fill="#002e5c" stroke="#002e5c"></path><path d="M199.3 867L211.3 1080L395.7 935Z" fill="#005fe7" stroke="#005fe7"></path><path d="M0 902L211.3 1080L199.3 867Z" fill="#002e5c" stroke="#002e5c"></path><path d="M194.3 0L0 0L201.3 191Z" fill="#0048a0" stroke="#0048a0"></path><path d="M0 693L0 902L199.3 867Z" fill="#003872" stroke="#003872"></path><path d="M1673.7 202L1520.3 0L1513.3 211Z" fill="#002545" stroke="#002545"></path><path d="M1513.3 211L1520.3 0L1298 172Z" fill="#0050b7" stroke="#0050b7"></path><path d="M1281 1080L1465.3 1080L1263 908Z" fill="#001b30" stroke="#001b30"></path><path d="M1727.7 508L1502.3 555L1706.7 708Z" fill="#0050b7" stroke="#0050b7"></path><path d="M1502.3 555L1458.3 755L1706.7 708Z" fill="#003872" stroke="#003872"></path><path d="M1502.3 555L1702.7 366L1485.3 366Z" fill="#005fe7" stroke="#005fe7"></path><path d="M1702.7 366L1673.7 202L1513.3 211Z" fill="#0058cf" stroke="#0058cf"></path><path d="M1706.7 708L1458.3 755L1476.3 863Z" fill="#0066ff" stroke="#0066ff"></path><path d="M1740.7 909L1706.7 708L1476.3 863Z" fill="#005fe7" stroke="#005fe7"></path><path d="M0 902L0 1080L211.3 1080Z" fill="#004089" stroke="#004089"></path><path d="M1673.7 202L1680.7 0L1520.3 0Z" fill="#00101c" stroke="#00101c"></path><path d="M1920 150L1680.7 0L1673.7 202Z" fill="#002e5c" stroke="#002e5c"></path><path d="M1920 358L1673.7 202L1702.7 366Z" fill="#005fe7" stroke="#005fe7"></path><path d="M1672.7 1080L1740.7 909L1476.3 863Z" fill="#0048a0" stroke="#0048a0"></path><path d="M1920 690L1920 510L1727.7 508Z" fill="#0048a0" stroke="#0048a0"></path><path d="M1465.3 1080L1672.7 1080L1476.3 863Z" fill="#002e5c" stroke="#002e5c"></path><path d="M1920 690L1727.7 508L1706.7 708Z" fill="#0048a0" stroke="#0048a0"></path><path d="M1727.7 508L1920 358L1702.7 366Z" fill="#002e5c" stroke="#002e5c"></path><path d="M1920 690L1706.7 708L1740.7 909Z" fill="#005fe7" stroke="#005fe7"></path><path d="M1920 510L1920 358L1727.7 508Z" fill="#00101c" stroke="#00101c"></path><path d="M1920 912L1920 690L1740.7 909Z" fill="#001b30" stroke="#001b30"></path><path d="M1920 358L1920 150L1673.7 202Z" fill="#0066ff" stroke="#0066ff"></path><path d="M1920 150L1920 0L1680.7 0Z" fill="#002545" stroke="#002545"></path><path d="M1920 1080L1920 912L1740.7 909Z" fill="#005fe7" stroke="#005fe7"></path><path d="M1672.7 1080L1920 1080L1740.7 909Z" fill="#002545" stroke="#002545"></path></g></svg>