<svg id="visual" viewBox="0 0 960 540" width="960" height="540" xmlns="http://www.w3.org/2000/svg" xmlns:xlink="http://www.w3.org/1999/xlink" version="1.1"><path d="M0 50L80 51.7C160 53.3 320 56.7 480 53.8C640 51 800 42 880 37.5L960 33L960 0L880 0C800 0 640 0 480 0C320 0 160 0 80 0L0 0Z" fill="#6198ff"></path><path d="M0 104L80 101.2C160 98.3 320 92.7 480 85.3C640 78 800 69 880 64.5L960 60L960 31L880 35.5C800 40 640 49 480 51.8C320 54.7 160 51.3 80 49.7L0 48Z" fill="#3179ff"></path><path d="M0 168L80 171.7C160 175.3 320 182.7 480 171C640 159.3 800 128.7 880 113.3L960 98L960 58L880 62.5C800 67 640 76 480 83.3C320 90.7 160 96.3 80 99.2L0 102Z" fill="#005fee"></path><path d="M0 190L80 197.2C160 204.3 320 218.7 480 206C640 193.3 800 153.7 880 133.8L960 114L960 96L880 111.3C800 126.7 640 157.3 480 169C320 180.7 160 173.3 80 169.7L0 166Z" fill="#004fc3"></path><path d="M0 239L80 243.5C160 248 320 257 480 247C640 237 800 208 880 193.5L960 179L960 112L880 131.8C800 151.7 640 191.3 480 204C320 216.7 160 202.3 80 195.2L0 188Z" fill="#004cbb"></path><path d="M0 428L80 424.3C160 420.7 320 413.3 480 401.5C640 389.7 800 373.3 880 365.2L960 357L960 177L880 191.5C800 206 640 235 480 245C320 255 160 246 80 241.5L0 237Z" fill="#004fc3"></path><path d="M0 487L80 476.2C160 465.3 320 443.7 480 430.2C640 416.7 800 411.3 880 408.7L960 406L960 355L880 363.2C800 371.3 640 387.7 480 399.5C320 411.3 160 418.7 80 422.3L0 426Z" fill="#005fee"></path><path d="M0 525L80 516.8C160 508.7 320 492.3 480 483.3C640 474.3 800 472.7 880 471.8L960 471L960 404L880 406.7C800 409.3 640 414.7 480 428.2C320 441.7 160 463.3 80 474.2L0 485Z" fill="#3179ff"></path><path d="M0 541L80 541C160 541 320 541 480 541C640 541 800 541 880 541L960 541L960 469L880 469.8C800 470.7 640 472.3 480 481.3C320 490.3 160 506.7 80 514.8L0 523Z" fill="#6198ff"></path></svg>