<svg id="visual" viewBox="0 0 960 540" width="960" height="540" xmlns="http://www.w3.org/2000/svg" xmlns:xlink="http://www.w3.org/1999/xlink" version="1.1"><path d="M0 168L87 109L175 158L262 77L349 141L436 120L524 147L611 174L698 131L785 109L873 104L960 206L960 0L873 0L785 0L698 0L611 0L524 0L436 0L349 0L262 0L175 0L87 0L0 0Z" fill="#00cc8e"></path><path d="M0 212L87 239L175 228L262 222L349 298L436 212L524 244L611 314L698 212L785 185L873 179L960 293L960 204L873 102L785 107L698 129L611 172L524 145L436 118L349 139L262 75L175 156L87 107L0 166Z" fill="#00b98a"></path><path d="M0 287L87 282L175 298L262 282L349 357L436 282L524 276L611 363L698 287L785 228L873 233L960 357L960 291L873 177L785 183L698 210L611 312L524 242L436 210L349 296L262 220L175 226L87 237L0 210Z" fill="#00a784"></path><path d="M0 384L87 363L175 406L262 336L349 406L436 320L524 325L611 422L698 384L785 298L873 298L960 438L960 355L873 231L785 226L698 285L611 361L524 274L436 280L349 355L262 280L175 296L87 280L0 285Z" fill="#00957c"></path><path d="M0 541L87 541L175 541L262 541L349 541L436 541L524 541L611 541L698 541L785 541L873 541L960 541L960 436L873 296L785 296L698 382L611 420L524 323L436 318L349 404L262 334L175 404L87 361L0 382Z" fill="#038373"></path></svg>